<?xml version="1.0" encoding="UTF-8"?>
<svg width="600px" height="450px" viewBox="0 0 600 450" version="1.1" xmlns="http://www.w3.org/2000/svg" xmlns:xlink="http://www.w3.org/1999/xlink">
    <title>secure-elabnext</title>
    <defs>
        <polygon id="path-1" points="82.126261 0 0 136.649564 82.1267693 273.299129 270.938074 273.299129 353.06586 136.649564 270.939091 0"></polygon>
        <linearGradient x1="34.4223681%" y1="78.7597598%" x2="84.9615403%" y2="19.6288782%" id="linearGradient-3">
            <stop stop-color="#3572B8" offset="0%"></stop>
            <stop stop-color="#234E7D" offset="100%"></stop>
        </linearGradient>
        <polygon id="path-4" points="0 0 109.591287 0 109.591287 141.158722 0 141.158722"></polygon>
        <linearGradient x1="40.6106023%" y1="87.6391143%" x2="71.0730236%" y2="10.252028%" id="linearGradient-6">
            <stop stop-color="#3572B8" offset="0%"></stop>
            <stop stop-color="#234E7D" offset="100%"></stop>
        </linearGradient>
        <linearGradient x1="34.4223681%" y1="87.5539976%" x2="84.9615403%" y2="10.3419136%" id="linearGradient-7">
            <stop stop-color="#3572B8" offset="0%"></stop>
            <stop stop-color="#234E7D" offset="100%"></stop>
        </linearGradient>
    </defs>
    <g id="secure-elabnext" stroke="none" stroke-width="1" fill="none" fill-rule="evenodd">
        <g id="stock-photo-two-scientists-are-working-in-laboratory-young-female-researcher-and-her-senior-supervisor-are-734641993" transform="translate(46.061651, 176.700871)">
            <mask id="mask-2" fill="white">
                <use xlink:href="#path-1"></use>
            </mask>
            <use id="Mask" fill="#EFEFEF" xlink:href="#path-1"></use>
        </g>
        <g id="Group-8" transform="translate(-0.000000, 155.000000)">
            <path d="M124.577925,233.992649 C133.11866,233.992649 141.660266,233.913439 150.199261,234.037042 C153.04211,234.078823 153.83682,233.243202 152.888913,230.49523 C152.090722,228.179866 151.444857,225.767883 151.11322,223.346325 C150.637961,219.881983 149.173014,218.586771 145.434484,218.681649 C134.150999,218.968893 122.855328,218.786101 111.56401,218.786101 C99.577211,218.786972 99.6572912,218.806121 96.7291386,230.492619 C96.0484562,233.210126 96.4505985,234.098843 99.3909373,234.046616 C107.784569,233.896901 116.181682,233.99352 124.577925,233.992649 L124.577925,233.992649 Z M124.70675,187.597446 C90.3401253,187.597446 55.9735011,187.588678 21.6060064,187.629652 C20.2568279,187.631393 18.107717,187.399856 17.6611824,188.415657 C17.0623213,189.775281 18.4924505,191.103569 19.2854193,192.234268 C24.3800916,199.499812 31.3166103,203.229638 40.307362,203.153039 C59.7337923,202.988526 79.161093,202.8362 98.5875232,202.851868 C135.270382,202.881462 171.953241,202.97547 208.63523,203.1748 C217.759159,203.224415 224.948104,199.852339 230.16812,192.400521 C231.029853,191.169722 232.672369,189.827507 231.841101,188.254626 C231.365842,187.354593 229.181914,187.627911 227.807493,187.62704 C193.440868,187.588678 159.073374,187.597446 124.70675,187.597446 L124.70675,187.597446 Z M0,64.890962 C0,54.9897323 4.2399024,47.6728324 8.68870986,42.7757495 C16.2632594,34.437826 25.9851789,31.7516551 37.3992294,31.6750565 C63.6377057,31.4992281 89.8770524,31.54275 116.116399,31.5888832 C121.259816,31.598458 124.577925,34.6188771 124.749401,38.9179692 C124.935675,43.5913497 121.934405,46.6579019 116.581213,47.1766829 C115.287742,47.3028963 113.974252,47.2419657 112.670336,47.2419657 C88.8951986,47.244577 65.1200612,47.216723 41.3449239,47.2524109 C24.9432649,47.2767832 15.6957339,56.4973305 15.6818069,72.8267432 C15.6565642,104.282623 15.7427376,135.739374 15.5869292,167.194384 C15.5677796,171.073055 16.6949965,172.0375 20.4840121,172.031407 C90.0694192,171.922602 159.654826,171.91825 229.240233,172.03837 C233.160685,172.045334 234.488973,170.886781 234.016325,167.109952 C233.823088,165.557961 233.908391,163.872794 234.306181,162.364325 C235.315889,158.53614 238.06299,156.447089 241.932957,156.50802 C245.786385,156.56895 249.221132,158.739822 249.372588,162.525356 C249.746877,171.890396 250.872353,181.401669 248.037337,190.610901 C242.709387,207.917815 228.22008,218.532804 209.53004,218.753895 C196.629282,218.907092 183.725042,218.885331 170.824284,218.727782 C167.332958,218.685131 165.929812,219.012415 167.023952,223.169626 C169.94166,234.254651 169.734496,234.300784 181.134619,234.314711 C183.306361,234.317323 185.499865,234.238983 187.642882,234.51143 C191.001902,234.937945 193.758578,236.343702 194.594198,240.042192 C195.411539,243.654509 194.407925,246.609645 191.363133,248.783128 C190.437858,249.556077 188.627347,250 187.686404,250 L61.7549488,250 C60.6590676,250 58.6849148,249.120858 58.2348984,248.793573 C55.0403918,246.470375 54.1647314,243.348985 55.170087,239.615677 C56.1667383,235.917187 59.122745,234.872662 62.4121293,234.457463 C64.12341,234.240724 65.8773421,234.340824 67.6121246,234.339084 C79.6824852,234.326897 79.5362516,234.290339 82.6428441,222.831896 C83.5689899,219.414557 82.9762217,218.665981 79.4988228,218.714726 C66.6241777,218.894036 53.7451804,218.851384 40.8687944,218.7626 C31.0720172,218.695576 22.1073786,216.266184 14.3221831,209.824945 C7.05837991,203.816313 0,195.474907 0,187.354593 L0,64.890962 Z" id="Fill-1" fill="url(#linearGradient-3)"></path>
            <g id="Group-5" transform="translate(140.075683, 0.000000)">
                <mask id="mask-5" fill="white">
                    <use xlink:href="#path-4"></use>
                </mask>
                <g id="Clip-4"></g>
                <path d="M54.8655585,46.473108 L54.8655585,46.4992211 C60.6487471,46.4992211 66.4328061,46.5819127 72.2133834,46.4765898 C78.6354733,46.3599511 78.1898091,47.7230566 78.0514095,40.3652461 C77.7258658,23.0783519 62.6464018,12.222252 46.8401222,17.7651998 C36.9127794,21.2460804 31.609202,30.3752318 31.8720743,43.0496762 C31.9269118,45.7010297 32.7103058,46.5801718 35.3503436,46.5209821 C41.8525138,46.3747485 48.3599066,46.473108 54.8655585,46.473108 M54.8820968,124.802933 C66.6173389,124.802933 78.352581,124.721112 90.0852117,124.862123 C92.9115232,124.89607 93.7915358,124.119639 93.7715157,121.214118 C93.6418205,103.108142 93.6357274,84.9995543 93.7736598,66.8935782 C93.7967584,63.7895971 92.7966254,62.9705151 89.8127647,62.9834188 C66.4885141,63.083672 43.1642635,63.0819312 19.8400129,62.986183 C16.9806248,62.9739969 16.1467454,63.8383416 16.1664153,66.7029523 C16.2921085,84.8089285 16.3077764,102.917516 16.1693768,121.023492 C16.145875,124.137918 17.1399149,124.904774 20.1142008,124.865604 C31.7014685,124.710666 43.2930883,124.802062 54.8820968,124.802933 M54.761106,141.150625 C40.2648353,141.149754 25.769435,141.16194 11.2731643,141.145402 C2.75854201,141.135827 0.00882908163,138.421802 0.00534733053,130.028171 C-0.00248660944,106.112023 -0.00335704721,82.1950038 0.0140517083,58.2788555 C0.0210152105,49.570996 2.73852194,46.620212 11.4089526,46.8334692 C15.3598697,46.9300878 15.8803915,45.3441502 15.754178,42.0164666 C15.1030905,24.7852804 22.7481455,12.144783 37.7884398,4.12718071 C60.461603,-7.95971823 90.5439324,7.91097371 93.6218004,33.4165414 C93.9856434,36.429997 94.4487163,39.4982901 94.2345886,42.4969482 C93.9725868,46.1693252 95.5184843,46.8265057 98.7774034,46.8003926 C107.074416,46.7342393 109.589981,49.431726 109.589981,57.7304797 C109.591287,82.0818469 109.591287,106.433214 109.589981,130.784581 C109.589111,138.387855 106.868122,141.123641 99.1194854,141.14105 C84.3333589,141.174127 69.5472324,141.150625 54.761106,141.150625" id="Fill-3" fill="url(#linearGradient-6)" mask="url(#mask-5)"></path>
            </g>
            <path d="M195.043954,105.843185 C188.626216,105.872652 183.477576,100.73794 183.489741,94.3210725 C183.502819,87.7370811 188.448647,82.7607884 194.976059,82.7651377 C201.465173,82.7686223 206.563327,87.808457 206.593926,94.2488261 C206.624258,100.623912 201.454728,105.813462 195.043954,105.843185" id="Fill-6" fill="url(#linearGradient-7)"></path>
        </g>
    </g>
</svg>