<?xml version="1.0" encoding="UTF-8"?>
<svg width="600px" height="450px" viewBox="0 0 600 450" version="1.1" xmlns="http://www.w3.org/2000/svg" xmlns:xlink="http://www.w3.org/1999/xlink">
    <title>full-access-elabnext</title>
    <defs>
        <polygon id="path-1" points="82.126261 0 0 136.649564 82.1267693 273.299129 270.938074 273.299129 353.06586 136.649564 270.939091 0"></polygon>
        <polygon id="path-3" points="0 0 139.632823 0 139.632823 234.206027 0 234.206027"></polygon>
        <linearGradient x1="44.4629131%" y1="87.6391143%" x2="62.427119%" y2="10.252028%" id="linearGradient-5">
            <stop stop-color="#3572B8" offset="0%"></stop>
            <stop stop-color="#234E7D" offset="100%"></stop>
        </linearGradient>
        <polygon id="path-6" points="0 0 141.008182 0 141.008182 141.087112 0 141.087112"></polygon>
        <linearGradient x1="34.4397635%" y1="87.6391143%" x2="84.9224991%" y2="10.252028%" id="linearGradient-8">
            <stop stop-color="#3572B8" offset="0%"></stop>
            <stop stop-color="#234E7D" offset="100%"></stop>
        </linearGradient>
    </defs>
    <g id="full-access-elabnext" stroke="none" stroke-width="1" fill="none" fill-rule="evenodd">
        <g id="stock-photo-two-scientists-are-working-in-laboratory-young-female-researcher-and-her-senior-supervisor-are-734641993" transform="translate(46.061651, 176.700871)">
            <mask id="mask-2" fill="white">
                <use xlink:href="#path-1"></use>
            </mask>
            <use id="Mask" fill="#EFEFEF" xlink:href="#path-1"></use>
        </g>
        <g id="Group-7" transform="translate(-0.000000, 158.000000)">
            <g id="Group-3" transform="translate(0.000000, 15.793973)">
                <mask id="mask-4" fill="white">
                    <use xlink:href="#path-3"></use>
                </mask>
                <g id="Clip-2"></g>
                <path d="M70.4220409,187.4082 C54.9043078,187.4082 39.3874453,187.4082 23.8697122,187.4082 C15.5793687,187.4082 15.5793687,187.4082 15.6281201,195.643698 C15.713435,210.254308 23.9184636,218.477618 38.5734716,218.522887 C53.9458212,218.569897 69.3181708,218.553357 84.6905203,218.525499 C91.939674,218.51244 99.2071094,218.712669 106.431887,218.267813 C115.356869,217.71936 122.343114,211.186678 124.257475,202.447125 C124.98004,199.147702 124.674473,195.800399 124.975687,192.494012 C125.330005,188.613926 124.20263,187.240182 120.018718,187.303733 C103.489394,187.556195 86.9548471,187.407329 70.4220409,187.4082 M28.1911724,233.290198 C11.017634,228.844247 0.207019183,215.381036 0.145209418,197.133226 C-0.0358670745,143.7766 -0.0637249965,90.4182331 0.153044459,37.0607363 C0.240100465,15.6728168 15.5210412,0.574693612 37.0317098,0.162048143 C52.6878619,-0.137424518 68.3553313,0.0584514961 84.0175774,0.11852014 C90.2664575,0.142895822 93.8374949,3.29606436 93.6390072,8.31049032 C93.4544485,12.9749511 89.8059313,15.7703195 83.7416099,15.7798956 C68.3692603,15.8042713 52.9969107,15.749426 37.6245612,15.8034008 C24.4947743,15.8486699 15.7064705,24.408887 15.6794832,37.5369327 C15.5880743,81.0423012 15.6690364,124.546799 15.5793687,168.052168 C15.5732748,170.872782 16.2871341,171.78687 19.1800052,171.779906 C53.2598199,171.69285 87.3405052,171.688497 121.42119,171.786 C124.426364,171.794705 124.981781,170.715211 124.958276,167.99384 C124.836398,154.072714 124.844233,140.150718 124.93303,126.229592 C124.972205,120.078214 128.911489,116.379205 134.067816,117.440417 C137.722428,118.192581 139.569756,121.993446 139.569756,124.238621 C139.711657,151.048389 139.569756,177.723219 139.569756,204.632231 C139.569756,218.351387 128.458798,228.63096 113.99009,232.518881 C112.991557,232.787014 106.486733,234.206027 104.466163,234.206027 L38.6457281,234.206027 C36.5746657,234.206027 31.6890827,234.127676 28.1911724,233.290198" id="Fill-1" fill="url(#linearGradient-5)" mask="url(#mask-4)"></path>
            </g>
            <g id="Group-6" transform="translate(62.207523, 0.000000)">
                <mask id="mask-7" fill="white">
                    <use xlink:href="#path-6"></use>
                </mask>
                <g id="Clip-5"></g>
                <path d="M46.6594076,78.1934919 C46.5723516,69.809128 39.7576074,63.0370413 31.3871725,63.0152351 C23.2160957,62.9952544 16.0975261,70.1007656 16.0827038,78.2927358 C16.0679271,86.7310745 23.2735527,93.7965399 31.7275614,93.6311335 C40.2163926,93.4657271 46.7473342,86.7127927 46.6594076,78.1934919 M109.385001,124.771067 C117.882538,124.852029 124.605873,118.298453 124.761704,109.783505 C124.914052,101.435704 118.180269,94.4076731 109.843786,94.2161499 C101.351473,94.0202739 94.3147359,100.954285 94.2859131,109.546713 C94.257279,118.099095 100.794314,124.689234 109.385001,124.771067 M94.2859699,31.5123203 C94.2677257,39.9593646 100.928381,46.7375452 109.371943,46.8655176 C117.845104,46.9943605 124.857465,39.9280245 124.776503,31.3416906 C124.699894,23.1671316 118.015734,16.3933038 109.851621,16.2165801 C101.26877,16.0311508 94.3042892,22.8746234 94.2859699,31.5123203 M0,78.9186685 C0.29076706,65.6226047 6.1861998,55.9654819 17.6157828,50.2337145 C28.5700401,44.7404805 39.6017772,45.6075583 49.5766544,52.8271129 C52.7541986,55.1271326 54.8130731,55.1462849 57.9096553,53.1170094 C63.8425221,49.2316998 69.9938995,45.6693681 76.1565942,42.1514348 C78.379134,40.8830288 79.0207368,39.5928588 78.5575988,36.9411329 C75.6377404,20.2037451 86.3804515,4.36390483 102.890623,0.718869848 C119.036901,-2.8460736 135.412135,7.1827783 139.899872,23.3856422 C143.490062,36.3447992 138.17094,50.248514 126.667359,57.9764756 C115.754019,65.3074619 100.583639,64.6275545 90.1682584,56.1778986 C88.3244121,54.6822764 86.9802674,54.3392757 84.8587125,55.6755854 C78.1170954,59.9230479 73.6946503,62.6296192 66.8041674,66.6333249 C64.8663007,67.7598296 63.8573216,69.1048449 62.6568193,74.2550782 C61.3927661,79.6743146 63.7737479,82.5436806 67.3404324,84.2900241 C68.6976356,84.9551319 76.0469036,87.9368002 77.2360886,88.3755624 C82.1773875,90.1976446 86.438779,88.8012663 91.4906391,84.2099325 C100.070879,76.4123261 111.299363,76.1259118 121.77133,80.637154 C132.540158,85.2763686 139.333138,93.7242834 140.585874,105.787634 C142.241679,121.725848 133.19656,135.394511 118.299536,139.786487 C103.547025,144.134934 88.3487878,137.327155 81.1100809,123.138767 C78.8170257,118.644065 77.8498335,113.775893 78.0178516,108.8433 C78.1075193,106.223785 77.1699261,105.201747 75.0588179,104.39822 C70.052227,102.492564 64.9951436,100.680929 60.1234895,98.4688358 C57.4656696,97.2622395 56.03621,98.0083095 54.1793054,99.9461762 C45.6112533,108.886828 35.0478775,111.799722 23.2126135,108.623048 C11.5035807,105.480327 4.18217053,97.4824912 0.936722626,85.855291 C0.28293202,83.514355 0.264650259,80.9958248 0,78.9186685" id="Fill-4" fill="url(#linearGradient-8)" mask="url(#mask-7)"></path>
            </g>
        </g>
    </g>
</svg>