<?xml version="1.0" encoding="UTF-8"?>
<svg width="600px" height="450px" viewBox="0 0 600 450" version="1.1" xmlns="http://www.w3.org/2000/svg" xmlns:xlink="http://www.w3.org/1999/xlink">
    <title>samples-elabnext</title>
    <defs>
        <polygon id="path-1" points="82.126261 0 0 136.649564 82.1267693 273.299129 270.938074 273.299129 353.06586 136.649564 270.939091 0"></polygon>
        <polygon id="path-3" points="0 0 140.479345 0 140.479345 250 0 250"></polygon>
        <linearGradient x1="45.081345%" y1="87.6391143%" x2="61.0391462%" y2="10.252028%" id="linearGradient-5">
            <stop stop-color="#3572B8" offset="0%"></stop>
            <stop stop-color="#234E7D" offset="100%"></stop>
        </linearGradient>
        <polygon id="path-6" points="0 0 46.9315576 0 46.9315576 46.787278 0 46.787278"></polygon>
        <linearGradient x1="34.4223681%" y1="87.4077652%" x2="84.9615403%" y2="10.4963392%" id="linearGradient-8">
            <stop stop-color="#3572B8" offset="0%"></stop>
            <stop stop-color="#234E7D" offset="100%"></stop>
        </linearGradient>
        <linearGradient x1="34.4223681%" y1="87.4173998%" x2="84.9615403%" y2="10.4861648%" id="linearGradient-9">
            <stop stop-color="#3572B8" offset="0%"></stop>
            <stop stop-color="#234E7D" offset="100%"></stop>
        </linearGradient>
        <linearGradient x1="34.4223681%" y1="87.6363674%" x2="84.9615403%" y2="10.2549288%" id="linearGradient-10">
            <stop stop-color="#3572B8" offset="0%"></stop>
            <stop stop-color="#234E7D" offset="100%"></stop>
        </linearGradient>
    </defs>
    <g id="samples-elabnext" stroke="none" stroke-width="1" fill="none" fill-rule="evenodd">
        <g id="stock-photo-two-scientists-are-working-in-laboratory-young-female-researcher-and-her-senior-supervisor-are-734641993" transform="translate(46.061651, 176.700871)">
            <mask id="mask-2" fill="white">
                <use xlink:href="#path-1"></use>
            </mask>
            <use id="Mask" fill="#EFEFEF" xlink:href="#path-1"></use>
        </g>
        <g id="Group-11" transform="translate(-0.000000, 159.000000)">
            <g id="Group-3" transform="translate(39.062633, 0.000000)">
                <mask id="mask-4" fill="white">
                    <use xlink:href="#path-3"></use>
                </mask>
                <g id="Clip-2"></g>
                <path d="M70.3549368,16.0268349 C61.2401945,16.0268349 52.1245827,16.1198691 43.0124489,15.9737967 C40.0136178,15.9259754 38.9293782,16.8971828 38.9954586,19.9499215 C39.161529,27.6135043 39.1171856,35.2849124 39.0145871,42.9511037 C38.9789385,45.6117076 39.6910413,46.9107084 42.6594406,46.896052 C61.0323892,46.8055015 79.4062071,46.8124573 97.7791556,46.8828851 C100.567573,46.8933188 101.633553,45.9047219 101.58921,43.0823949 C101.466614,35.4170731 101.40575,27.7439261 101.615294,20.0820822 C101.707459,16.6989417 100.326727,15.9285838 97.2635549,15.9772746 C88.2957545,16.121608 79.3244762,16.0285738 70.3549368,16.0268349 L70.3549368,16.0268349 Z M39.0493662,135.452304 C39.0493662,144.863539 39.0111092,154.274773 39.058061,163.686008 C39.1302277,178.015882 38.5902816,192.390099 39.5223625,206.666065 C40.9370039,228.314339 66.1701371,241.262611 84.972608,230.590633 C96.6036208,223.989553 101.542258,213.729708 101.544867,200.715355 C101.550953,156.265879 101.50574,111.815534 101.62669,67.3660577 C101.637031,63.6446901 100.769292,62.3387335 96.8340326,62.3819894 C79.1723174,62.5821874 61.5062549,62.5769706 43.8445397,62.3839464 C40.0223126,62.3422114 38.9337256,63.4081919 38.9635407,67.2582424 C39.141531,89.9881473 39.0511052,112.720661 39.0493662,135.452304 L39.0493662,135.452304 Z M64.8189677,249.999999 C59.8959809,248.441895 54.6478091,247.522856 50.1073928,245.212652 C31.7961773,235.89706 23.284853,220.541202 23.3109373,200.129326 C23.3700619,154.63039 23.3283269,109.131454 23.3283269,63.6325174 C23.3283269,49.5800071 23.3309354,35.5266274 23.3300659,21.4732477 C23.3291964,15.6451339 23.3257185,15.6538286 17.3080583,15.6529592 C14.2657533,15.6529592 11.2095367,15.7972926 8.18549074,15.5564471 C2.90949568,15.1356195 -0.0293413805,12.2098246 0,7.76331198 C0.0297831521,3.36288169 3.53638962,0.114510308 8.77412763,0.0632110812 C19.9304052,-0.0472126782 31.0884218,0.0206066386 42.2464384,0.0206066386 C71.2261542,0.0188676817 100.206739,0.0119118544 129.186455,0.0388656854 C131.055834,0.0406046422 133.005204,0.0258235091 134.776332,0.520556731 C138.337716,1.51524004 140.49663,3.97760293 140.479345,7.79374372 C140.460982,11.7820412 138.376842,15.5077563 134.426802,15.5077563 C130.462849,15.5077563 126.550197,15.5625334 122.31062,15.5625334 C118.031047,15.5625334 116.989412,16.8554478 116.998107,20.9880788 C117.123312,80.5403948 117.032016,140.092711 117.127659,199.645027 C117.146787,211.929018 114.47575,223.075731 106.352213,232.707813 C98.8433972,241.610403 89.6504019,247.273316 78.1054674,249.061833 C77.1290432,249.213122 76.2021792,249.680032 75.2527087,249.999999 L64.8189677,249.999999 Z" id="Fill-1" fill="url(#linearGradient-5)" mask="url(#mask-4)"></path>
            </g>
            <g id="Group-6" transform="translate(187.405716, 31.275850)">
                <mask id="mask-7" fill="white">
                    <use xlink:href="#path-6"></use>
                </mask>
                <g id="Clip-5"></g>
                <path d="M23.2688763,15.7374565 C18.9710445,15.8617919 15.6609401,19.4092638 15.8244021,23.7183989 C15.9843861,27.9623231 19.6596714,31.3237266 23.886206,31.0924454 C27.8745035,30.8742063 31.2002585,27.3197785 31.1550456,23.3245252 C31.1080938,19.1475508 27.4380253,15.616599 23.2688763,15.7374565 M46.9317334,23.4149509 C46.9265147,36.2328018 36.175414,46.8899988 23.3540852,46.7865309 C10.4658066,46.6830629 -0.151394422,35.9502213 0.00163377977,23.1810612 C0.153792503,10.4762425 10.6023147,0.105973413 23.3532157,0.000766524525 C36.1232453,-0.104440364 46.9369484,10.6344876 46.9317334,23.4149509" id="Fill-4" fill="url(#linearGradient-8)" mask="url(#mask-7)"></path>
            </g>
            <path d="M15.595892,119.919333 C15.595892,119.108979 15.6167595,118.328188 15.6654503,117.550005 C15.9767235,112.559198 19.1242354,109.416903 23.5507501,109.509068 C27.7807626,109.596016 30.7587262,112.726138 31.1047786,117.452623 C31.1256461,117.74129 31.1221682,118.031696 31.1326019,118.321232 C31.3682305,124.716246 31.3682305,124.716246 37.9632244,124.97622 C43.0783659,125.177939 46.7197415,128.368925 46.7875609,132.708491 C46.8553802,137.053275 43.3035608,140.297299 38.1327727,140.575532 C36.9772358,140.638135 35.8103958,140.671175 34.6592064,140.585966 C32.0264257,140.391203 31.109126,141.572824 31.109126,144.175173 C31.109126,146.142802 31.1708589,147.565269 31.1708589,149.462471 C31.1708589,153.318608 27.2982021,156.037467 23.6429148,156.153977 C19.9293724,156.272226 16.1767036,153.483809 16.1767036,149.772005 C16.1767036,148.953826 16.2132217,144.895101 16.2132217,144.204735 C16.2132217,141.640643 15.4654702,140.359032 12.9022478,140.359032 C11.6388957,140.359032 8.30531544,140.171225 6.5098425,140.171225 C2.8189066,140.469456 -0.014723571,136.390732 0,132.758921 C0.0148386953,128.972343 2.94758941,125.597897 7.0176179,125.141421 C8.50877339,124.973611 10.0199269,125.020563 11.7023676,125.020563 C15.214191,125.020563 15.595892,123.031197 15.595892,119.919333" id="Fill-7" fill="url(#linearGradient-9)"></path>
            <path d="M109.403658,136.418034 C109.403658,142.998247 104.069408,148.331627 97.4900646,148.331627 C90.909852,148.331627 85.5756018,142.998247 85.5756018,136.418034 C85.5756018,129.837821 90.909852,124.504441 97.4900646,124.504441 C104.069408,124.504441 109.403658,129.837821 109.403658,136.418034" id="Fill-9" fill="url(#linearGradient-10)"></path>
        </g>
    </g>
</svg>